# This file uses centimeters as units for non-parametric coordinates.

mtllib bbI's.mtl
g default
v -0.324565 5.194664 0.572758
v -0.417031 5.130075 0.553769
v -0.604558 5.074883 0.515260
v -0.789756 5.130075 0.477228
v -0.911515 5.194664 0.452225
v -0.199131 5.345878 0.598516
v -0.394743 5.345875 0.558347
v -0.604558 5.345875 0.515260
v -0.812044 5.345875 0.472652
v -0.996017 5.345878 0.434872
v -0.153605 5.591554 0.607865
v -0.371182 5.591554 0.563185
v -0.604558 5.591554 0.515260
v -0.835345 5.591554 0.467867
v -1.055511 5.591554 0.422655
v -0.211207 5.867784 0.596036
v -0.374518 5.867784 0.562500
v -0.596040 5.867784 0.517010
v -0.815103 5.867784 0.472024
v -0.980873 5.867784 0.437983
v -0.293814 5.998492 0.579073
v -0.398051 6.050613 0.557668
v -0.596040 6.067606 0.517010
v -0.791570 6.050613 0.476856
v -0.898267 5.998492 0.454945
vt 0.102905 0.914105
vt 0.080372 0.914387
vt 0.077500 0.890069
vt 0.088242 0.897224
vt 0.055821 0.884112
vt 0.056204 0.914690
vt 0.034566 0.890607
vt 0.032304 0.914989
vt 0.020632 0.898071
vt 0.011112 0.915255
vt 0.108496 0.941760
vt 0.083434 0.942074
vt 0.056551 0.942411
vt 0.029967 0.942744
vt 0.004607 0.943061
vt 0.102251 0.973011
vt 0.083440 0.973247
vt 0.057923 0.973567
vt 0.032689 0.973883
vt 0.013595 0.974122
vt 0.080988 0.993910
vt 0.092921 0.987879
vt 0.058206 0.996113
vt 0.035659 0.994478
vt 0.023295 0.988751
vn -0.201155 -0.000001 0.979559
vn -0.201155 -0.000000 0.979559
vn -0.201155 -0.000001 0.979559
vn -0.201153 -0.000002 0.979560
vn -0.201158 -0.000001 0.979559
vn -0.201158 -0.000000 0.979559
vn -0.201159 -0.000001 0.979559
vn -0.201158 -0.000000 0.979559
vn -0.201155 -0.000001 0.979559
vn -0.201155 -0.000000 0.979559
vn -0.201156 0.000000 0.979559
vn -0.201155 -0.000000 0.979559
vn -0.201157 -0.000001 0.979559
vn -0.201157 -0.000001 0.979559
vn -0.201156 -0.000001 0.979559
vn -0.201156 -0.000000 0.979559
vn -0.201155 -0.000001 0.979559
vn -0.201157 -0.000000 0.979559
vn -0.201158 0.000000 0.979559
vn -0.201157 -0.000000 0.979559
vn -0.201154 -0.000000 0.979560
vn -0.201156 -0.000001 0.979559
vn -0.201157 0.000001 0.979559
vn -0.201160 0.000003 0.979558
vn -0.201158 0.000006 0.979559
s 1
g polySurface14 pPlane1
usemtl polySurface14SG
f 6/1/1 7/2/2 2/3/3 1/4/4
f 3/5/5 2/3/3 7/2/2 8/6/6
f 4/7/7 3/5/5 8/6/6 9/8/8
f 5/9/9 4/7/7 9/8/8 10/10/10
f 11/11/11 12/12/12 7/2/2 6/1/1
f 7/2/2 12/12/12 13/13/13 8/6/6
f 8/6/6 13/13/13 14/14/14 9/8/8
f 14/14/14 15/15/15 10/10/10 9/8/8
f 16/16/16 17/17/17 12/12/12 11/11/11
f 12/12/12 17/17/17 18/18/18 13/13/13
f 13/13/13 18/18/18 19/19/19 14/14/14
f 19/19/19 20/20/20 15/15/15 14/14/14
f 22/21/21 17/17/17 16/16/16 21/22/22
f 18/18/18 17/17/17 22/21/21 23/23/23
f 19/19/19 18/18/18 23/23/23 24/24/24
f 25/25/25 20/20/20 19/19/19 24/24/24
g default
v 0.346139 5.194664 0.559224
v 0.438655 5.130075 0.540398
v 0.626282 5.074883 0.502221
v 0.811579 5.130075 0.464517
v 0.933401 5.194664 0.439729
v 0.220639 5.345878 0.584759
v 0.416355 5.345875 0.544936
v 0.626282 5.345875 0.502221
v 0.833878 5.345875 0.459980
v 1.017948 5.345878 0.422526
v 0.175089 5.591554 0.594027
v 0.392781 5.591554 0.549733
v 0.626282 5.591554 0.502221
v 0.857192 5.591554 0.455236
v 1.077474 5.591554 0.410414
v 0.232722 5.867784 0.582301
v 0.396119 5.867784 0.549053
v 0.617758 5.867784 0.503955
v 0.836938 5.867784 0.459357
v 1.002796 5.867784 0.425609
v 0.315372 5.998492 0.565483
v 0.419664 6.050613 0.544262
v 0.617758 6.067606 0.503955
v 0.813393 6.050613 0.464148
v 0.920147 5.998492 0.442426
vt 0.119272 0.912744
vt 0.133713 0.895671
vt 0.144362 0.888376
vt 0.141810 0.912729
vt 0.165964 0.882134
vt 0.165984 0.912713
vt 0.187306 0.888348
vt 0.189890 0.912698
vt 0.201340 0.895627
vt 0.211087 0.912685
vt 0.114045 0.940470
vt 0.139113 0.940454
vt 0.166002 0.940436
vt 0.192593 0.940419
vt 0.217959 0.940403
vt 0.120701 0.971636
vt 0.139518 0.971624
vt 0.165040 0.971608
vt 0.190280 0.971591
vt 0.209380 0.971579
vt 0.142242 0.992253
vt 0.130228 0.986380
vt 0.165055 0.994156
vt 0.187582 0.992224
vt 0.199872 0.986335
vn 0.199388 0.000001 0.979921
vn 0.199391 0.000002 0.979920
vn 0.199390 -0.000001 0.979920
vn 0.199390 0.000001 0.979920
vn 0.199391 -0.000001 0.979920
vn 0.199391 -0.000000 0.979920
vn 0.199392 -0.000000 0.979920
vn 0.199392 -0.000000 0.979920
vn 0.199390 0.000001 0.979920
vn 0.199391 -0.000000 0.979920
vn 0.199389 0.000000 0.979920
vn 0.199389 0.000001 0.979920
vn 0.199391 0.000001 0.979920
vn 0.199391 0.000000 0.979920
vn 0.199391 -0.000000 0.979920
vn 0.199390 -0.000001 0.979920
vn 0.199390 0.000000 0.979920
vn 0.199390 0.000001 0.979920
vn 0.199391 0.000001 0.979920
vn 0.199390 0.000001 0.979920
vn 0.199391 0.000001 0.979920
vn 0.199392 0.000001 0.979920
vn 0.199390 0.000000 0.979920
vn 0.199390 -0.000000 0.979920
vn 0.199390 0.000001 0.979920
s 1
g pPlane1 polySurface18
usemtl polySurface14SG
f 31/26/26 26/27/27 27/28/28 32/29/29
f 28/30/30 33/31/31 32/29/29 27/28/28
f 29/32/32 34/33/33 33/31/31 28/30/30
f 30/34/34 35/35/35 34/33/33 29/32/32
f 36/36/36 31/26/26 32/29/29 37/37/37
f 32/29/29 33/31/31 38/38/38 37/37/37
f 33/31/31 34/33/33 39/39/39 38/38/38
f 39/39/39 34/33/33 35/35/35 40/40/40
f 41/41/41 36/36/36 37/37/37 42/42/42
f 37/37/37 38/38/38 43/43/43 42/42/42
f 38/38/38 39/39/39 44/44/44 43/43/43
f 44/44/44 39/39/39 40/40/40 45/45/45
f 47/46/46 46/47/47 41/41/41 42/42/42
f 43/43/43 48/48/48 47/46/46 42/42/42
f 44/44/44 49/49/49 48/48/48 43/43/43
f 50/50/50 49/49/49 44/44/44 45/45/45
